REM DIRINDEX 1\2,1\3,1\4,1\5\6,1\5\7,1\8
REM DIRNAME cjc115,folder01,folder02,folder03,folder04,folder05,folder06,folder07
TITLE ""
FILE "073 Åy073ÅzUnit4 (0829 generalization_0840 fame).mp3" MP3
  TRACK 01 AUDIO
    TITLE "0:"
    INDEX 01 00:00:00
  TRACK 02 AUDIO
    TITLE "2:cjc115_2830"
    INDEX 01 00:00:07
  TRACK 03 AUDIO
    TITLE "0:"
    INDEX 01 00:01:54
  TRACK 04 AUDIO
    TITLE "3:cjc115_2831"
    INDEX 01 00:01:66
  TRACK 05 AUDIO
    TITLE "0:"
    INDEX 01 00:04:03
  TRACK 06 AUDIO
    TITLE "4:cjc115_2832"
    INDEX 01 00:04:17
  TRACK 07 AUDIO
    TITLE "0:"
    INDEX 01 00:10:08
  TRACK 08 AUDIO
    TITLE "2:cjc115_2833"
    INDEX 01 00:11:19
  TRACK 09 AUDIO
    TITLE "0:"
    INDEX 01 00:12:26
  TRACK 10 AUDIO
    TITLE "3:cjc115_2834"
    INDEX 01 00:12:38
  TRACK 11 AUDIO
    TITLE "0:"
    INDEX 01 00:14:02
  TRACK 12 AUDIO
    TITLE "4:cjc115_2835"
    INDEX 01 00:14:17
  TRACK 13 AUDIO
    TITLE "0:"
    INDEX 01 00:17:18
  TRACK 14 AUDIO
    TITLE "2:cjc115_2836"
    INDEX 01 00:18:29
  TRACK 15 AUDIO
    TITLE "0:"
    INDEX 01 00:19:26
  TRACK 16 AUDIO
    TITLE "3:cjc115_2837"
    INDEX 01 00:19:36
  TRACK 17 AUDIO
    TITLE "0:"
    INDEX 01 00:21:21
  TRACK 18 AUDIO
    TITLE "4:cjc115_2838"
    INDEX 01 00:21:33
  TRACK 19 AUDIO
    TITLE "0:"
    INDEX 01 00:25:50
  TRACK 20 AUDIO
    TITLE "2:cjc115_2839"
    INDEX 01 00:26:66
  TRACK 21 AUDIO
    TITLE "0:"
    INDEX 01 00:28:15
  TRACK 22 AUDIO
    TITLE "3:cjc115_2840"
    INDEX 01 00:28:25
  TRACK 23 AUDIO
    TITLE "0:"
    INDEX 01 00:31:35
  TRACK 24 AUDIO
    TITLE "4:cjc115_2841"
    INDEX 01 00:31:51
  TRACK 25 AUDIO
    TITLE "0:"
    INDEX 01 00:36:38
  TRACK 26 AUDIO
    TITLE "2:cjc115_2842"
    INDEX 01 00:37:54
  TRACK 27 AUDIO
    TITLE "0:"
    INDEX 01 00:38:69
  TRACK 28 AUDIO
    TITLE "3:cjc115_2843"
    INDEX 01 00:39:05
  TRACK 29 AUDIO
    TITLE "0:"
    INDEX 01 00:41:45
  TRACK 30 AUDIO
    TITLE "4:cjc115_2844"
    INDEX 01 00:41:53
  TRACK 31 AUDIO
    TITLE "0:"
    INDEX 01 00:45:41
  TRACK 32 AUDIO
    TITLE "2:cjc115_2845"
    INDEX 01 00:46:58
  TRACK 33 AUDIO
    TITLE "0:"
    INDEX 01 00:47:56
  TRACK 34 AUDIO
    TITLE "3:cjc115_2846"
    INDEX 01 00:47:68
  TRACK 35 AUDIO
    TITLE "0:"
    INDEX 01 00:50:74
  TRACK 36 AUDIO
    TITLE "4:cjc115_2847"
    INDEX 01 00:51:07
  TRACK 37 AUDIO
    TITLE "0:"
    INDEX 01 00:55:42
  TRACK 38 AUDIO
    TITLE "2:cjc115_2848"
    INDEX 01 00:56:55
  TRACK 39 AUDIO
    TITLE "0:"
    INDEX 01 00:57:68
  TRACK 40 AUDIO
    TITLE "3:cjc115_2849"
    INDEX 01 00:58:05
  TRACK 41 AUDIO
    TITLE "0:"
    INDEX 01 00:59:47
  TRACK 42 AUDIO
    TITLE "4:cjc115_2850"
    INDEX 01 00:59:63
  TRACK 43 AUDIO
    TITLE "0:"
    INDEX 01 01:02:71
  TRACK 44 AUDIO
    TITLE "2:cjc115_2851"
    INDEX 01 01:04:13
  TRACK 45 AUDIO
    TITLE "0:"
    INDEX 01 01:05:21
  TRACK 46 AUDIO
    TITLE "3:cjc115_2852"
    INDEX 01 01:05:36
  TRACK 47 AUDIO
    TITLE "0:"
    INDEX 01 01:07:29
  TRACK 48 AUDIO
    TITLE "4:cjc115_2853"
    INDEX 01 01:07:37
  TRACK 49 AUDIO
    TITLE "0:"
    INDEX 01 01:10:47
  TRACK 50 AUDIO
    TITLE "2:cjc115_2854"
    INDEX 01 01:11:60
  TRACK 51 AUDIO
    TITLE "0:"
    INDEX 01 01:12:62
  TRACK 52 AUDIO
    TITLE "3:cjc115_2855"
    INDEX 01 01:13:04
  TRACK 53 AUDIO
    TITLE "0:"
    INDEX 01 01:14:19
  TRACK 54 AUDIO
    TITLE "4:cjc115_2856"
    INDEX 01 01:14:33
  TRACK 55 AUDIO
    TITLE "0:"
    INDEX 01 01:17:35
  TRACK 56 AUDIO
    TITLE "2:cjc115_2857"
    INDEX 01 01:18:49
  TRACK 57 AUDIO
    TITLE "0:"
    INDEX 01 01:19:56
  TRACK 58 AUDIO
    TITLE "3:cjc115_2858"
    INDEX 01 01:19:72
  TRACK 59 AUDIO
    TITLE "0:"
    INDEX 01 01:22:35
  TRACK 60 AUDIO
    TITLE "4:cjc115_2859"
    INDEX 01 01:22:48
  TRACK 61 AUDIO
    TITLE "0:"
    INDEX 01 01:25:74
  TRACK 62 AUDIO
    TITLE "2:cjc115_2860"
    INDEX 01 01:27:14
  TRACK 63 AUDIO
    TITLE "0:"
    INDEX 01 01:28:33
  TRACK 64 AUDIO
    TITLE "3:cjc115_2861"
    INDEX 01 01:28:49
  TRACK 65 AUDIO
    TITLE "0:"
    INDEX 01 01:29:68
  TRACK 66 AUDIO
    TITLE "4:cjc115_2862"
    INDEX 01 01:30:09
  TRACK 67 AUDIO
    TITLE "0:"
    INDEX 01 01:33:38
  TRACK 68 AUDIO
    TITLE "2:cjc115_2863"
    INDEX 01 01:34:54
  TRACK 69 AUDIO
    TITLE "0:"
    INDEX 01 01:35:57
  TRACK 70 AUDIO
    TITLE "3:cjc115_2864"
    INDEX 01 01:35:71
  TRACK 71 AUDIO
    TITLE "0:"
    INDEX 01 01:37:09
  TRACK 72 AUDIO
    TITLE "4:cjc115_2865"
    INDEX 01 01:37:21
  TRACK 73 AUDIO
    TITLE "0:"
    INDEX 01 01:40:35
